<?xml version="1.0" encoding="UTF-8" standalone="no"?>
<!-- Created with Inkscape (http://www.inkscape.org/) -->

<svg
   xmlns:dc="http://purl.org/dc/elements/1.1/"
   xmlns:cc="http://creativecommons.org/ns#"
   xmlns:rdf="http://www.w3.org/1999/02/22-rdf-syntax-ns#"
   xmlns:svg="http://www.w3.org/2000/svg"
   xmlns="http://www.w3.org/2000/svg"
   xmlns:sodipodi="http://sodipodi.sourceforge.net/DTD/sodipodi-0.dtd"
   xmlns:inkscape="http://www.inkscape.org/namespaces/inkscape"
   width="1052.3622"
   height="744.09448"
   id="svg2"
   version="1.1"
   inkscape:version="0.48.0 r9654"
   sodipodi:docname="Robot.gcode">
  <defs
     id="defs4" />
  <sodipodi:namedview
     id="base"
     pagecolor="#ffffff"
     bordercolor="#666666"
     borderopacity="1.0"
     inkscape:pageopacity="0.0"
     inkscape:pageshadow="2"
     inkscape:zoom="1.979899"
     inkscape:cx="384.66996"
     inkscape:cy="461.46769"
     inkscape:document-units="px"
     inkscape:current-layer="layer1"
     showgrid="false"
     inkscape:window-width="1536"
     inkscape:window-height="801"
     inkscape:window-x="-8"
     inkscape:window-y="-8"
     inkscape:window-maximized="1"
     units="cm"
     fit-margin-top="-4"
     fit-margin-left="0"
     fit-margin-right="0"
     fit-margin-bottom="4"
     showguides="true"
     inkscape:guide-bbox="true">
    <sodipodi:guide
       orientation="0,1"
       position="707.61185,355.57369"
       id="guide3007" />
    <sodipodi:guide
       orientation="1,0"
       position="500.02551,552.04836"
       id="guide3009" />
    <sodipodi:guide
       orientation="1,0"
       position="700.03571,558.10928"
       id="guide3091" />
    <sodipodi:guide
       orientation="0,1"
       position="489.92398,532.85546"
       id="guide3093" />
  </sodipodi:namedview>
  <metadata
     id="metadata7">
    <rdf:RDF>
      <cc:Work
         rdf:about="">
        <dc:format>image/svg+xml</dc:format>
        <dc:type
           rdf:resource="http://purl.org/dc/dcmitype/StillImage" />
        <dc:title></dc:title>
      </cc:Work>
    </rdf:RDF>
  </metadata>
  <g
     inkscape:label="Layer 1"
     inkscape:groupmode="layer"
     id="layer1"
     transform="translate(-5.1433893,-582.95593)">
    <rect
       style="fill:none;stroke:#000000;stroke-width:1.18596339px;stroke-linecap:butt;stroke-linejoin:miter;stroke-opacity:1"
       id="rect3051"
       width="138.70654"
       height="140.89156"
       x="537.2782"
       y="812.80182" />
    <g
       transform="matrix(1.3663181,0,0,-1.0086472,417.3032,980.77034)"
       id="g93">
      <path
         id="path39"
         d="m 120.26303,163.45116 c -5.6817,-1.03213 -9.62077,-3.92392 -11.06569,-8.12364 -0.88932,-2.58486 -0.47208,-9.28034 0.6649,-10.66973 0.18247,-0.22298 0.45868,-2.01993 0.63036,-4.10104 0.57373,-6.95449 2.41703,-14.17655 5.39458,-21.13605 0.83762,-1.95779 0.96398,-2.11246 2.0551,-2.51551 l 1.1626,-0.42946 1.27434,-5.9266 c 0.70089,-3.25963 1.21118,-5.98976 1.13397,-6.06697 -0.0772,-0.0772 -0.85223,-0.19186 -1.7223,-0.25479 l -1.58193,-0.11443 v -4.717232 -4.717235 l 0.8599,-0.649448 c 1.62923,-1.230503 3.33828,-1.551504 9.00603,-1.691548 l 5.23572,-0.12937 -0.0763,-2.151719 -0.0763,-2.151719 -1.32292,-0.06455 c -4.48065,-0.218615 -9.43136,-1.397101 -12.9493,-3.082494 -3.37842,-1.618554 -4.64549,-2.60087 -4.64549,-3.601492 0,-0.964285 -0.32379,-1.012645 -0.8993,-0.134319 -0.23704,0.361776 -0.71958,0.846871 -1.07232,1.07799 -0.59466,0.389641 -0.7316,0.380283 -1.88203,-0.128606 -0.68238,-0.301853 -1.26783,-0.548823 -1.30099,-0.548823 -0.15358,0 -0.72582,4.79107 -0.58862,4.928267 0.0857,0.08566 0.88605,-0.209199 1.77866,-0.655238 l 1.62291,-0.81098 0.66228,1.446612 c 1.26865,2.77109 1.03621,7.309551 -0.48369,9.444042 -0.82446,1.157859 -1.79205,3.633602 -1.79937,4.604022 -0.006,0.77122 0.0568,0.82987 0.84788,0.79375 l 0.85415,-0.039 0.40799,3.05447 c 0.40584,3.03848 0.4155,3.06481 1.84329,5.02709 1.5325,2.10619 1.81649,3.02114 1.84547,5.94568 l 0.0158,1.59183 -1.52135,0.92171 c -0.83675,0.50694 -1.62827,0.92171 -1.75893,0.92171 -0.13067,0 -0.50863,-0.99311 -0.8399,-2.20691 -0.33128,-1.2138 -0.64963,-2.25422 -0.70745,-2.31204 -0.0578,-0.0578 -0.95816,-0.26643 -2.00074,-0.46357 l -1.8956,-0.35843 -0.96849,1.4062 -0.96849,1.40621 0.43821,1.13198 c 0.70166,1.8125 0.73163,1.83215 3.24487,2.12713 1.29121,0.15156 2.38972,0.30951 2.44113,0.35103 0.0514,0.0415 -0.22627,1.03552 -0.61704,2.20891 l -0.7105,2.13345 h -3.90981 -3.90981 l -2.630478,-3.24115 c -1.446763,-1.78263 -2.716937,-3.38389 -2.822604,-3.55836 -0.105669,-0.17447 0.105908,-1.96225 0.47017,-3.97284 l 0.662297,-3.65561 -0.879472,-2.95957 c -0.948579,-3.19214 -0.939054,-3.24528 0.583237,-3.25402 1.471342,-0.008 1.547251,-0.37137 0.395962,-1.89312 -0.586761,-0.77556 -1.749422,-2.102445 -2.583694,-2.948622 -2.103375,-2.133391 -2.657537,-3.440517 -2.656795,-6.266704 6.09e-4,-2.345243 0.497596,-3.813587 1.756613,-5.189968 0.471416,-0.515361 0.58972,-0.532024 1.491495,-0.21005 0.538707,0.192338 1.113014,0.354936 1.276241,0.361323 0.195445,0.0076 0.362085,-1.169287 0.488056,-3.447032 0.105206,-1.902253 0.150251,-3.495323 0.100102,-3.540156 -0.05015,-0.04483 -0.686496,0.07228 -1.4141,0.260255 -0.727604,0.187967 -1.36264,0.302643 -1.411191,0.25483 -0.04855,-0.04781 0.33491,-1.144648 0.852135,-2.437413 3.582413,-8.953952 3.533576,-16.286619 -0.135209,-20.300853 -1.355011,-1.482598 -4.009144,-3.057184 -5.153213,-3.057184 -0.331971,0 -0.668862,-0.105623 -0.748647,-0.234718 -0.195123,-0.315716 1.516602,-3.646631 2.440578,-4.749217 l 0.739872,-0.882893 2.946675,0.409661 c 3.427584,0.476519 6.24434,1.161139 9.51246,2.312027 4.4384,1.563009 9.93607,4.652196 12.37818,6.955399 l 0.98877,0.932524 1.90789,-1.287431 c 1.80137,-1.215551 2.06209,-1.307663 4.66979,-1.64982 l 2.76191,-0.362389 0.19267,-2.6398 c 0.10597,-1.451891 0.35726,-3.268113 0.55842,-4.03605 0.20116,-0.767937 0.29305,-1.437767 0.2042,-1.488511 -0.88499,-0.505444 -6.9558,-1.480865 -9.21658,-1.480865 h -1.13142 v -1.399619 c 0,-3.528633 1.6123,-7.134209 4.47514,-10.007726 1.68068,-1.686941 2.45903,-2.23346 4.78528,-3.359942 4.66068,-2.256933 9.04302,-3.082686 15.39918,-2.901626 3.62323,0.10321 4.30204,0.199642 6.47318,0.919585 3.2906,1.09115 5.66841,2.476137 7.64547,4.453201 2.5252,2.525197 4.08425,6.204305 4.08425,9.638176 0,1.243865 -0.0381,1.30707 -1.19663,1.986024 -1.62843,0.954321 -4.5153,3.696596 -5.27992,5.015459 -0.48118,0.829986 -1.19637,3.417743 -1.19637,4.328848 0,0.05969 -0.56868,0.03031 -1.26373,-0.06528 -1.25163,-0.172146 -1.26683,-0.16524 -1.5875,0.721561 -0.41656,1.151996 -0.41352,2.048608 0.007,2.047743 0.1819,-2.65e-4 1.0117,-0.411305 1.84399,-0.91318 l 1.51325,-0.912501 2.72008,0.393804 c 1.49604,0.21659 2.884,0.450982 3.08434,0.520869 0.20035,0.06989 0.5036,0.01143 0.67388,-0.129892 0.70124,-0.581975 6.73671,-2.73795 10.02127,-3.579771 4.14382,-1.062047 9.56661,-1.686297 11.42593,-1.31531 l 1.24354,0.248119 0.90683,2.35408 c 0.49875,1.294744 0.87475,2.376808 0.83556,2.404586 -0.0392,0.02778 -0.62638,0.313466 -1.30485,0.634858 -1.75434,0.83104 -3.56898,2.520957 -4.40134,4.09884 -0.70626,1.338834 -0.71508,1.419188 -0.71508,6.514927 0,5.790891 0.29684,7.532235 1.81796,10.664626 0.47295,0.973934 0.73364,1.769057 0.57931,1.766941 -0.15433,-0.0021 -0.75686,-0.164981 -1.33894,-0.361918 -0.58208,-0.196935 -1.36697,-0.430882 -1.74419,-0.51988 l -0.68586,-0.161814 -0.30633,2.49265 c -0.48356,3.934822 -0.65203,3.635637 1.68885,2.999316 1.09734,-0.298291 2.07075,-0.46677 2.16313,-0.374396 0.0924,0.09237 0.2207,1.448298 0.28518,3.013165 0.13923,3.379401 -0.32191,5.591053 -1.58489,7.601101 -1.60242,2.550287 -2.8258,4.767113 -2.90797,5.269383 -0.0832,0.50862 0.0203,0.55778 2.22088,1.05535 l 0.7163,0.16197 -1.31161,2.63846 c -1.24541,2.50529 -1.31241,2.7489 -1.32739,4.82644 -0.0275,3.8202 -0.19363,4.31625 -2.34489,7.00297 -1.52819,1.90857 -2.106,2.44304 -2.76242,2.55525 -1.66804,0.28514 -7.77475,0.49239 -7.91224,0.26852 -0.0778,-0.12674 -0.18292,-1.1234 -0.23352,-2.21481 l -0.092,-1.98437 2.22091,-0.13229 2.22092,-0.13229 0.53942,-1.51397 c 0.58755,-1.64906 0.52748,-1.93995 -0.72497,-3.51067 l -0.59541,-0.74673 -1.85741,0.85614 -1.8574,0.85612 -0.33147,2.22799 c -0.18231,1.2254 -0.42044,2.22799 -0.52919,2.22799 -0.10875,0 -0.98939,-0.5993 -1.95697,-1.33178 l -1.75925,-1.33179 0.01,-3.09998 0.01,-3.09999 1.57524,-1.71979 c 1.5364,-1.6774 2.0269,-2.69655 2.54531,-5.288609 0.20695,-1.034735 0.41107,-1.144609 1.54487,-0.831551 1.3623,0.376147 1.19155,-0.06252 -0.74951,-1.925534 -1.42731,-1.369912 -1.77266,-1.889342 -2.30287,-3.463679 -0.45357,-1.346758 -0.6181,-2.406325 -0.60301,-3.883446 0.0206,-2.02094 0.0176,-2.030161 -0.59545,-1.797087 -0.38952,0.148098 -1.42359,0.09908 -2.81111,-0.133244 -1.2072,-0.202134 -3.05811,-0.447326 -4.11314,-0.544869 L 152.0757,86.66034 v 3.153908 3.15391 l 2.52873,0.448055 c 2.48296,0.439947 4.71321,1.323277 5.38511,2.13286 0.24743,0.298132 0.33843,1.608476 0.33432,4.813707 l -0.006,4.40407 -0.74782,0.82846 c -0.4113,0.45565 -0.97181,1.05641 -1.24558,1.33502 -0.46745,0.47571 -0.48608,0.82882 -0.30594,5.7985 0.1055,2.91057 0.25319,5.45189 0.3282,5.64736 0.075,0.19548 0.59076,0.42807 1.1461,0.51688 1.00961,0.16144 1.00976,0.16165 1.42656,2.04903 1.07151,4.85204 1.28586,7.34633 1.34455,15.64609 l 0.058,8.20227 1.97941,1.98419 c 2.37911,2.38486 3.11981,4.0124 3.11981,6.8552 0,1.79394 -0.009,1.81694 -1.14596,2.86477 -1.15414,1.06385 -3.08584,1.93957 -5.57551,2.52761 -0.79733,0.18832 -3.1864,0.30993 -5.84624,0.29759 -3.74489,-0.0174 -4.84688,-0.11655 -6.58234,-0.59242 -2.63225,-0.72177 -5.54049,-2.11385 -7.26668,-3.47833 -0.73613,-0.58188 -1.38798,-0.97054 -1.44854,-0.86368 -0.0606,0.10685 -0.3052,0.78959 -0.54366,1.51719 -1.09591,3.34396 -3.88455,5.82021 -8.10357,7.1958 -1.4049,0.45806 -8.73016,0.7008 -10.64593,0.35278 z m 8.54689,-1.50725 c 0.13451,-0.1345 0.31845,-1.13211 0.40875,-2.2169 0.20054,-2.40896 -0.18985,-4.02548 -1.22123,-5.05686 -0.61908,-0.61909 -0.97759,-0.7517 -2.02906,-0.75059 -1.99279,0.002 -3.52121,1.11441 -4.72454,3.43823 -0.52609,1.01597 -1.45723,4.29328 -1.27483,4.48699 0.48214,0.51203 8.3399,0.60014 8.84091,0.0991 z m 2.89279,-0.70622 c 0.579,-0.27504 0.68385,-0.5404 0.8411,-2.12869 0.36182,-3.65476 1.24391,-6.13405 2.46767,-6.93588 0.94048,-0.61623 1.89408,-0.28745 2.59218,0.89374 l 0.58134,0.98364 0.19143,-1.5875 c 0.16596,-1.37639 0.0231,-4.89479 -0.19867,-4.89479 -0.0428,0 -1.18982,0.29203 -2.54886,0.64896 -4.69638,1.23342 -7.04976,1.5641 -11.20223,1.57409 -3.35382,0.008 -4.29527,-0.0837 -6.07613,-0.59238 -2.55059,-0.72851 -4.78847,-1.88439 -5.99366,-3.09574 -0.49213,-0.49466 -0.97948,-0.90316 -1.08298,-0.90778 -0.41093,-0.0183 -1.04892,2.91585 -1.1919,5.4817 -0.0831,1.49159 -0.0864,2.71198 -0.007,2.71198 0.0791,0 0.56055,-0.41672 1.06987,-0.92604 1.58057,-1.58057 3.76319,-1.08298 4.71803,1.07561 0.58038,1.31204 1.12854,5.38413 0.87821,6.52387 -0.14551,0.66253 -0.0609,0.7863 0.77621,1.13609 1.42196,0.59413 1.66378,0.51045 1.84764,-0.63937 0.25354,-1.58557 1.15868,-3.73362 2.14276,-5.08517 1.22399,-1.68104 2.85384,-2.45344 4.83107,-2.28947 1.28332,0.10642 1.59788,0.2487 2.3398,1.05827 1.146,1.2505 1.60213,3.35879 1.26387,5.84172 l -0.24533,1.80071 0.67221,-0.16668 c 0.36971,-0.0917 0.96986,-0.30808 1.33366,-0.48089 z m -15.70757,-2.98446 c -0.0964,-1.25376 -0.30593,-2.79864 -0.46568,-3.43307 -0.74012,-2.93931 -3.33658,-3.38746 -4.56975,-0.78875 -0.38968,0.8212 -0.39645,1.02725 -0.0602,1.83202 0.20838,0.49871 0.83692,1.41615 1.39676,2.03874 0.98027,1.09014 3.10146,2.63062 3.62228,2.63062 0.15344,0 0.18336,-0.89055 0.0766,-2.27956 z m 18.57201,1.4584 c 1.29501,-0.95236 2.63138,-2.7793 2.85655,-3.90516 0.20401,-1.02003 -0.33061,-2.61057 -0.99742,-2.96743 -0.91848,-0.49156 -1.72727,0.31663 -2.33904,2.33732 -0.56435,1.86405 -1.08715,5.35643 -0.80185,5.35643 0.0908,0 0.66763,-0.36952 1.28176,-0.82116 z m 22.46941,-1.72686 c 0.77368,-0.20733 0.79613,-1.39334 0.0634,-3.3516 -0.6761,-1.80705 -1.52111,-2.61996 -2.72342,-2.61996 -1.85521,0 -2.90902,1.42275 -3.25893,4.39992 l -0.16898,1.43779 1.0265,0.10583 c 1.7498,0.18041 4.43726,0.19529 5.06139,0.028 z m 3.83646,-0.51509 c 0.54571,-0.0939 0.99015,-0.1873 0.98766,-0.20748 -0.002,-0.0202 -0.23858,-0.92967 -0.52464,-2.02108 -0.62804,-2.39622 -0.66324,-3.73575 -0.12549,-4.77564 0.78884,-1.52546 2.63438,-0.82084 4.01342,1.5323 0.78734,1.34351 1.08799,1.14898 0.60642,-0.39237 -0.43984,-1.40781 -1.93512,-3.54103 -3.18759,-4.54754 l -1.06678,-0.85729 -1.13366,1.04497 c -1.91085,1.76135 -3.64915,2.26696 -7.83757,2.27965 -3.75068,0.0113 -5.84485,-0.31218 -10.40446,-1.60743 -1.28407,-0.36476 -2.36616,-0.6224 -2.40466,-0.57253 -0.0385,0.0499 8e-5,1.25843 0.0857,2.68569 0.13297,2.21611 0.23744,2.66038 0.71549,3.0427 1.96516,1.57167 2.53866,1.95038 4.20271,2.7753 1.6252,0.80566 4.39751,1.77344 5.08021,1.77344 0.12995,0 0.36596,-0.7571 0.52446,-1.68245 0.56332,-3.28863 1.74795,-4.66462 4.01761,-4.66656 0.98446,-7.9e-4 1.30342,0.14683 2.15376,0.99717 1.02626,1.02626 1.48295,2.15756 1.76503,4.37225 0.15246,1.19709 0.20092,1.26164 0.85093,1.13353 0.37909,-0.0747 1.13574,-0.21269 1.68144,-0.30663 z m 3.92459,-1.58098 c 0.56999,-0.35982 1.03635,-0.77574 1.03635,-0.92428 0,-0.46951 -1.26523,-2.78915 -1.99324,-3.65433 -0.7566,-0.89917 -1.81246,-1.10884 -2.07949,-0.41295 -0.27623,0.71984 -0.184,2.02401 0.28494,4.02887 0.42663,1.82401 0.48818,1.92485 1.08371,1.77538 0.34726,-0.0872 1.09774,-0.45287 1.66773,-0.81269 z m -33.57723,-7.79384 c 1.40821,-0.26964 3.5099,-0.74647 4.67043,-1.05961 l 2.11005,-0.56936 0.18999,-3.54737 c 0.18542,-3.46196 0.10655,-5.79907 -0.42347,-12.54823 -0.28064,-3.57363 -1.00124,-9.25215 -1.21877,-9.6041 -0.0738,-0.11943 -0.2716,-0.0437 -0.43953,0.16838 -0.44678,0.56413 -3.44663,0.98664 -6.99136,0.98467 -4.47,-0.002 -7.19065,-0.80493 -9.5363,-2.81271 -0.6056,-0.51838 -1.22338,-0.86692 -1.37284,-0.77454 -0.44951,0.27781 -1.19585,1.92998 -2.50604,5.54758 -2.30251,6.35755 -3.84358,13.66665 -3.84358,18.22968 0,1.87822 0.0272,1.95848 0.99219,2.92669 1.8329,1.83905 4.71629,3.096 8.19497,3.57241 2.3814,0.32614 7.00902,0.0926 10.17426,-0.51349 z m 25.84734,-0.13361 c 0.85745,-0.26085 1.8373,-0.82111 2.4728,-1.41389 l 1.05259,-0.98185 0.28873,-4.217 c 0.21474,-3.1362 0.20843,-5.50726 -0.0246,-9.25126 -0.27859,-4.47612 -1.12644,-10.9031 -1.52297,-11.5447 -0.18986,-0.3072 -0.90864,-0.30718 -0.90864,2e-5 0,0.29754 -2.83873,1.43056 -4.7625,1.90085 -3.23894,0.7918 -9.22348,0.24309 -10.42216,-0.95559 -0.35754,-0.35754 -0.42674,-0.35017 -0.64584,0.0688 -0.79128,1.51317 -2.60973,13.22026 -2.84696,18.32864 -0.0642,1.38245 -0.15742,3.30362 -0.20715,4.26927 l -0.0904,1.75574 2.27762,0.68098 c 6.74989,2.01817 11.72573,2.45931 15.33949,1.35997 z m -16.35221,-24.9369 c 0.48434,-2.13006 0.66772,-2.53533 1.39992,-3.09381 l 0.84257,-0.64266 -0.18265,-2.19786 c -0.10045,-1.20882 -0.19211,-2.46574 -0.20368,-2.79317 -0.0122,-0.34599 -0.18883,-0.59531 -0.42167,-0.59531 -0.22034,0 -1.07133,-0.71437 -1.89108,-1.5875 -0.81975,-0.87312 -1.6255,-1.5875 -1.79055,-1.5875 -0.17598,0 -0.63353,1.6897 -1.10627,4.08535 l -0.80617,4.08534 0.73787,0.7433 c 0.679,0.684 0.78093,1.06767 1.27756,4.80899 0.29683,2.23613 0.55276,4.55784 0.56875,5.15937 0.0225,0.84752 0.14036,0.52794 0.52355,-1.41985 0.27198,-1.38245 0.74531,-3.61656 1.05185,-4.96469 z m -31.26249,-1.16363 c 0.16042,-0.46016 0.24854,-0.87977 0.19584,-0.93248 -0.0527,-0.0527 -0.87616,-0.1687 -1.82989,-0.25775 -0.95373,-0.0891 -1.84726,-0.235 -1.98562,-0.3243 -0.13835,-0.0893 -0.66881,-1.12902 -1.1788,-2.3105 l -0.92724,-2.14814 1.50769,-2.08519 c 0.82923,-1.14686 1.61706,-2.06869 1.75073,-2.04852 0.13366,0.0202 1.40469,0.24274 2.8245,0.49459 l 2.58147,0.45791 0.40986,1.48979 c 0.68585,2.49298 0.6847,2.49126 1.35678,2.02027 0.53339,-0.3738 0.56724,-0.55872 0.42475,-2.32041 -0.14611,-1.80644 -0.24056,-2.03366 -1.67709,-4.03472 -1.48602,-2.07 -1.52996,-2.18172 -1.8461,-4.69329 -0.30386,-2.41412 -0.35857,-2.5651 -0.88687,-2.4478 -0.75374,0.16736 -11.57469,1.98553 -11.816985,1.98553 -0.104759,0 0.107709,1.0418 0.472149,2.3151 l 0.66262,2.31511 -0.582475,3.65335 c -0.354928,2.22615 -0.489736,3.77656 -0.34508,3.96875 0.130569,0.17347 1.224415,1.53579 2.430771,3.02737 l 2.19338,2.71198 h 2.98697 2.98698 z m 45.48713,-1.27911 c 0.92064,-0.32578 1.74267,-0.77155 1.82672,-0.99061 0.17941,-0.46751 -0.31211,-10.32977 -0.52544,-10.5431 -0.0798,-0.0798 -0.70149,0.27968 -1.38157,0.7988 -2.29729,1.75356 -6.0616,3.82962 -7.49929,4.13593 -0.77428,0.16497 -1.81607,0.22335 -2.31511,0.12973 l -0.90733,-0.17021 0.0346,1.40105 c 0.019,0.77058 0.10832,2.28885 0.19844,3.37395 l 0.16385,1.97289 1.19063,0.33151 c 1.92058,0.53474 7.16809,0.28421 9.21452,-0.43994 z m -22.06284,-0.27675 c 1.00983,-0.14595 1.86354,-0.29285 1.89713,-0.32644 0.0336,-0.0336 0.4886,-2.20377 1.01113,-4.82262 0.52252,-2.61885 1.00568,-5.01011 1.07369,-5.31391 0.22813,-1.01914 -6.21145,-3.68229 -11.49028,-4.75192 -1.19153,-0.24143 -2.19512,-0.3969 -2.23021,-0.34547 -0.0351,0.0514 -0.68871,2.99073 -1.45249,6.53179 -1.55796,7.22306 -1.58949,6.79473 0.58112,7.89466 2.5445,1.28939 6.56279,1.71884 10.60991,1.13391 z m 37.24221,-2.51928 2.30119,-0.16047 1.66756,-2.11497 1.66756,-2.11497 0.17919,-3.35226 c 0.16298,-3.04893 0.25718,-3.51348 1.04102,-5.13376 0.474,-0.97981 0.81009,-1.82502 0.74685,-1.87824 -0.0911,-0.0767 -11.62482,-2.76503 -12.51303,-2.91663 -0.12498,-0.0213 -0.45853,0.79466 -0.74123,1.81331 -0.44643,1.60861 -0.72206,2.06288 -2.09673,3.45564 l -1.58274,1.60356 0.17984,2.55855 c 0.1594,2.26766 0.24857,2.60358 0.78431,2.95461 0.59964,0.3929 0.60594,0.38422 0.7899,-1.0881 l 0.18543,-1.48416 2.77521,-1.30906 c 1.52637,-0.71999 2.86016,-1.21032 2.96399,-1.08964 0.71945,0.83627 2.65779,3.88348 2.65779,4.17825 0,0.19887 -0.36196,1.30946 -0.80435,2.46796 -0.77549,2.03081 -0.83957,2.1122 -1.78594,2.26865 -0.53987,0.0893 -1.42807,0.16359 -1.97378,0.16519 -0.99971,0.003 -1.18404,0.25341 -0.84216,1.14435 0.10536,0.27454 0.44019,0.36144 1.12448,0.29181 0.53595,-0.0545 2.00999,-0.17136 3.27564,-0.25962 z m -21.1452,-5.97036 c 2.5142,-1.26464 6.13654,-3.83901 8.15998,-5.79923 l 1.82049,-1.76362 v -3.33171 -3.331699 l -0.85989,0.358984 c -2.30495,0.962258 -4.79985,1.253001 -11.93537,1.390894 -10.29548,0.198958 -16.37315,-0.568974 -25.76776,-3.255836 l -0.59531,-0.170259 v 3.424708 3.424708 l 2.51648,0.32924 c 8.20104,1.07295 16.5118,4.66688 19.32703,8.35784 0.74543,0.97731 1.13702,1.09337 3.89477,1.15433 1.52853,0.0338 2.03665,-0.0827 3.43958,-0.78835 z m -44.25911,-9.62305 c 4.05038,-0.66105 3.96875,-0.63398 3.96875,-1.31607 0,-1.072037 1.01056,-3.930216 1.86665,-5.279496 1.18526,-1.868069 1.70238,-4.544369 1.29517,-6.703031 -0.1719,-0.911312 -0.40711,-1.715362 -0.52266,-1.786781 -0.11556,-0.07142 -0.78641,0.117385 -1.49078,0.41956 -3.46815,1.487842 -8.59651,1.978083 -12.260877,1.172067 -0.945885,-0.208057 -1.806669,-0.382468 -1.912852,-0.38758 -0.106183,-0.0051 -0.455061,0.496721 -0.775285,1.115185 -0.732802,1.415293 -0.777959,4.062692 -0.0959,5.622395 0.254545,0.582083 1.312507,1.952935 2.351028,3.046336 1.038521,1.093398 2.304939,2.610455 2.814262,3.371225 0.782834,1.16932 1.028334,1.36414 1.587504,1.25982 0.3638,-0.0679 1.79255,-0.30801 3.175,-0.53363 z m 71.28577,-2.367165 c 0.24712,-0.647094 1.11022,-2.224672 1.91798,-3.505729 1.85052,-2.9348 2.18149,-3.872677 2.35752,-6.680549 0.18456,-2.944164 0.0901,-3.071174 -1.90126,-2.555472 -4.45829,1.154575 -9.22013,1.021752 -12.15038,-0.338916 -1.23175,-0.571968 -1.72409,-0.681662 -2.16885,-0.483206 -1.20034,0.53561 -1.49478,3.474919 -0.62729,6.262166 0.42192,1.355641 0.79357,1.904471 2.25559,3.330954 1.12009,1.092864 1.80784,1.994926 1.90985,2.504979 0.10341,0.517041 0.35672,0.844709 0.72097,0.932619 0.30886,0.07454 1.93078,0.477052 3.60427,0.894479 1.67349,0.41742 3.17536,0.77161 3.33749,0.78708 0.16213,0.0155 0.49698,-0.50131 0.74411,-1.148405 z M 149.2033,98.622942 c 5.83167,-0.377838 10.17081,-1.427556 9.45688,-2.287793 -0.46604,-0.561547 -3.00284,-1.389722 -4.83042,-1.576965 l -1.71235,-0.175434 -0.087,0.7478 c -0.077,0.66191 -0.265,0.800451 -1.63648,1.206216 -4.77894,1.413905 -10.89607,1.174962 -15.71462,-0.61383 -1.22038,-0.453041 -1.38906,-0.605269 -1.38906,-1.253548 0,-0.692571 -0.0853,-0.748131 -1.38906,-0.904733 -3.28607,-0.394702 -8.85908,0.01617 -10.81059,0.796997 l -1.08223,0.433022 0.83644,0.351698 c 2.37441,0.998365 10.04873,2.514539 15.22356,3.00764 2.65482,0.252973 4.09508,0.338907 7.9375,0.473593 0.72761,0.02551 3.06647,-0.06659 5.19747,-0.204663 z m -0.10423,-3.185919 1.38906,-0.347197 v -4.224951 -4.224954 l -4.29948,0.155726 c -2.36471,0.08565 -4.77573,0.289706 -5.35781,0.453462 -0.58209,0.163756 -2.18943,0.378248 -3.57188,0.476649 l -2.51354,0.178911 v 3.295658 3.295655 l 1.19062,0.358302 c 2.92351,0.879784 4.68597,1.097785 8.20209,1.014521 1.96453,-0.04652 4.19695,-0.240824 4.96094,-0.431782 z m -43.19323,-8.1399 c 0.78051,-0.217551 0.80185,-0.270968 1.27949,-3.201665 0.26715,-1.639231 0.43321,-3.032945 0.36902,-3.097141 -0.32197,-0.321961 -4.00993,-0.89022 -5.80371,-0.894262 l -2.038531,-0.0046 -0.132099,0.859896 c -0.07265,0.472943 -0.204393,2.129684 -0.292759,3.681648 -0.146566,2.574152 -0.118615,2.834243 0.318545,2.964077 0.652924,0.193915 5.317514,-0.0341 6.300044,-0.307959 z m 35.05729,-1.514904 c 2.90952,-0.612852 11.59025,-0.682072 15.47812,-0.123423 4.14704,0.595889 4.38368,0.56007 7.87083,-1.1914 l 3.10833,-1.5612 -1.25624,-0.486283 c -1.60229,-0.620229 -3.84845,-1.098857 -8.00313,-1.705359 -2.66884,-0.389601 -4.96725,-0.482801 -11.90625,-0.482801 -8.99606,0 -11.93071,0.243229 -14.78559,1.22545 -2.71054,0.932563 -5.84443,1.382164 -9.68215,1.389043 l -3.69796,0.0066 1.89369,0.87026 c 2.12178,0.975082 6.14645,2.073002 8.94181,2.439304 2.86318,0.37519 9.43809,0.167532 12.03854,-0.380219 z m 34.51695,0.369734 c 0.0842,-0.08417 0.27195,-1.212519 0.4173,-2.507448 0.14534,-1.294932 0.31881,-2.68184 0.38547,-3.082023 0.11944,-0.716944 0.10096,-0.727519 -1.26123,-0.721794 -1.89455,0.008 -3.52787,0.773629 -3.7445,1.755341 -0.11228,0.508836 -0.50627,0.947656 -1.21709,1.355604 -0.57809,0.331766 -1.05238,0.748485 -1.05398,0.926041 -0.002,0.177557 -0.0751,0.759206 -0.16327,1.292556 -0.14324,0.866222 -0.0935,0.983877 0.46593,1.10231 0.82962,0.175627 5.97571,0.07507 6.17137,-0.120587 z m -8.05862,-1.025408 c 0,-0.585759 -0.19888,-0.651037 -0.79375,-0.260533 -0.35278,0.231584 -0.35278,0.289481 0,0.521065 0.59487,0.390504 0.79375,0.325226 0.79375,-0.260532 z m -39.29062,-3.945459 c 1.30968,-0.27441 2.68679,-0.618765 3.06022,-0.765238 l 0.67898,-0.266311 -0.36411,-2.340142 c -0.43322,-2.784316 -0.27018,-8.470064 0.32885,-11.468266 0.21806,-1.091406 0.39661,-2.128766 0.39679,-2.305246 5.3e-4,-0.479607 -2.66437,-2.197216 -6.01855,-3.879231 l -2.97615,-1.492445 -2.24418,1.493475 c -2.51261,1.672105 -2.28179,1.174056 -2.74725,5.928005 -0.36529,3.730871 -0.95894,6.538235 -1.95627,9.251275 -0.6475,1.761365 -0.816,2.616866 -0.7772,3.945895 0.0272,0.933312 0.093,1.740387 0.1461,1.793496 0.71876,0.718752 9.20221,0.789985 12.47277,0.104733 z m 41.52068,0.0901 c 0.22868,-0.228674 0.42423,-0.615627 0.43458,-0.859896 0.0103,-0.244266 0.11532,-1.515684 0.2333,-2.825371 0.22765,-2.527308 -0.0532,-8.086267 -0.52289,-10.348592 -0.18744,-0.902896 -0.68536,-1.900597 -1.48671,-2.978965 -0.66268,-0.89177 -1.23635,-1.621401 -1.27481,-1.621401 -0.0385,0 0.16027,0.922735 0.44162,2.050521 1.12114,4.494106 0.8414,10.505302 -0.6944,14.921504 -0.7004,2.014001 -0.71622,1.989979 1.34795,2.047283 0.68717,0.01908 1.26294,-0.126662 1.52136,-0.385083 z m -56.44934,-2.562594 c 1.15615,-1.783575 2.70715,-6.423451 3.29393,-9.853922 0.22402,-1.309687 0.48061,-3.884252 0.57019,-5.721254 l 0.16287,-3.340005 -1.82521,-1.34979 c -4.29548,-3.176624 -11.35297,-6.100723 -17.315996,-7.174458 -4.172136,-0.751259 -4.281374,-0.740269 -5.11155,0.514211 -0.383139,0.578963 -0.696617,1.151766 -0.696617,1.272897 0,0.12113 0.607607,0.375961 1.350239,0.566292 4.180147,1.07134 8.095274,4.307946 9.976304,8.247327 2.12761,4.4558 2.59854,9.580644 1.48178,16.125361 l -0.16014,0.938499 1.67956,0.340346 c 0.92375,0.18719 2.39392,0.613273 3.26705,0.946846 1.85845,0.710018 1.89893,0.691618 3.32759,-1.51235 z m 52.76288,-0.242946 c 0.37213,-1.17802 0.81,-3.286625 0.97304,-4.685792 0.32537,-2.792274 0.10712,-6.863868 -0.40552,-7.564931 -0.39231,-0.53652 -5.03381,-1.809539 -9.42987,-2.586324 -2.89972,-0.512378 -4.20396,-0.582316 -10.58333,-0.567507 -6.27278,0.01455 -7.67227,0.09389 -10.1496,0.575315 -1.58045,0.307137 -2.91578,0.600652 -2.96739,0.652264 -0.0516,0.05161 -0.29221,1.219134 -0.53466,2.594502 -0.6703,3.802282 -0.60741,11.496783 0.10281,12.580802 0.13321,0.203321 1.10519,0.177001 3.36238,-0.09105 7.14006,-0.847923 19.3764,-0.402738 26.19375,0.952984 1.30969,0.260448 2.46687,0.430355 2.57151,0.377571 0.10465,-0.05279 0.49474,-1.05981 0.86688,-2.23783 z m 6.37827,0.372994 c 0.17298,-0.11529 0.35539,-1.59398 0.44829,-3.63397 0.48697,-10.694032 3.80058,-16.572533 10.56998,-18.751605 0.43675,-0.140589 0.43487,-0.217926 -0.0343,-1.414184 l -0.49635,-1.26546 -2.34691,-0.07807 c -3.90283,-0.129828 -8.86919,0.894847 -14.74958,3.043176 l -2.61308,0.954659 1.55475,0.706168 c 1.41025,0.64054 1.77239,0.996016 3.89654,3.824866 2.24859,2.994562 2.35779,3.204385 2.74342,5.27145 0.25056,1.343033 0.41468,3.918923 0.43633,6.848369 0.0191,2.582587 0.0942,4.694123 0.167,4.6923 0.0728,-0.0019 0.26353,-0.09079 0.42395,-0.197699 z m -68.28049,-1.385012 c 1.0549,-6.911972 0.2386,-12.86707 -2.28098,-16.640166 -1.20183,-1.799749 -3.362336,-3.840811 -5.06529,-4.785249 l -1.129482,-0.626398 1.234511,1.333481 c 3.846261,4.154615 4.409291,10.486041 1.689497,18.998541 -0.511445,1.600729 -0.932087,2.912684 -0.934765,2.915454 -0.0027,0.0028 1.414807,0.0028 3.149959,0 l 3.15483,-0.005 0.18172,-1.190625 z m 74.44634,-0.702035 c -0.5131,-1.572746 -0.60627,-2.536539 -0.70689,-7.312458 -0.12431,-5.900568 0.0668,-7.201148 1.32901,-9.045744 0.47477,-0.693825 0.39944,-0.659667 -0.57165,0.259196 -1.39305,1.318128 -3.02574,4.569608 -3.71999,7.408333 -0.57342,2.344664 -1.15708,7.62294 -1.0225,9.246976 l 0.0866,1.044892 1.45521,-0.04559 c 0.80037,-0.02508 1.93146,0.04857 2.51354,0.163652 0.58209,0.115089 1.09644,0.182928 1.14301,0.150752 0.0466,-0.03217 -0.18127,-0.873675 -0.50632,-1.870004 z m -12.75052,-14.39211 -0.58616,-2.236062 -2.08912,-0.702003 c -1.14901,-0.386104 -3.43058,-0.912387 -5.07014,-1.169517 l -2.98103,-0.467513 -1.79278,1.068424 -1.79279,1.068427 -2.75839,-1.341117 -2.7584,-1.341117 -3.89455,-0.110638 c -3.81617,-0.108411 -9.17706,0.199136 -14.42254,0.827399 l -2.63475,0.315572 2.05725,1.015444 c 1.13148,0.558493 3.01373,1.655659 4.18277,2.438143 l 2.12554,1.422702 1.75926,-0.367422 c 3.68874,-0.770392 7.19487,-0.99845 13.35608,-0.868751 6.6569,0.140131 10.24283,0.615942 15.19167,2.015752 1.41914,0.401412 2.6059,0.716002 2.63725,0.69909 0.0313,-0.01691 -0.20678,-1.036979 -0.52917,-2.266813 z m -15.94639,-6.236575 c 0.23231,-1.10449 0.007,-1.150805 -5.60868,-1.15525 l -4.56476,-0.0036 -0.97801,-1.08254 c -1.69395,-1.875003 -7.08742,-5.281229 -7.73179,-4.882985 -0.23799,0.147087 -0.69105,2.499363 -0.94752,4.919586 -0.19623,1.851704 0.0125,2.456642 0.78108,2.263739 0.31662,-0.07946 2.77103,-0.271584 5.45425,-0.426929 6.19225,-0.358502 9.90565,-0.08133 11.77978,0.879245 0.71549,0.366721 1.37764,0.587449 1.47145,0.490511 0.0938,-0.09694 0.24869,-0.547732 0.3442,-1.001765 z m 3.44278,-3.571909 c 0.6071,-2.403036 3.14266,-5.434729 6.09414,-7.286564 l 1.19764,-0.75143 -0.1656,-1.322917 c -0.75483,-6.030367 -4.65164,-10.08756 -11.61289,-12.090866 -1.80664,-0.519913 -2.71735,-0.608446 -6.21771,-0.604443 -4.38717,0.005 -6.4862,0.287175 -10.05417,1.351515 -7.02405,2.095302 -10.94309,6.20131 -12.02678,12.600565 l -0.16803,0.992187 1.26876,0.0011 c 1.76292,0.0015 5.71374,0.67097 7.84598,1.329552 3.57804,1.105143 7.00259,3.022014 9.60124,5.374231 l 1.36179,1.232658 2.73925,0.03108 c 1.50659,0.01709 3.92987,0.119198 5.38508,0.226901 4.43949,0.328574 4.39181,0.339448 4.7513,-1.083525 z m -3.03151,-0.246291 c -0.65484,-0.11652 -2.81827,-0.22068 -4.80762,-0.231467 l -3.617,-0.01961 -0.17416,-0.792968 c -0.0958,-0.436131 -0.70252,-1.510681 -1.34828,-2.387888 -1.37664,-1.870027 -1.18274,-2.137368 0.97513,-1.344524 3.81644,1.402235 8.00805,1.765246 10.80209,0.935505 0.76837,-0.228182 1.466,-0.345912 1.55029,-0.261624 0.0843,0.08429 -0.0944,0.598404 -0.39715,1.142479 -0.30272,0.544075 -0.69993,1.495244 -0.88269,2.113707 -0.18276,0.618464 -0.46227,1.109576 -0.62113,1.091362 -0.15887,-0.01821 -0.82463,-0.128451 -1.47948,-0.244972 z m 1.59691,-1.728222 c 0.28587,-0.666908 0.51976,-1.249565 0.51976,-1.294792 0,-0.04523 -0.50601,0.03504 -1.12448,0.178378 -2.13859,0.495642 -7.30821,-0.02576 -9.78834,-0.987249 -0.38466,-0.149125 -0.34048,0.0659 0.26459,1.287666 l 0.72636,1.466684 3.175,0.03597 c 2.53836,0.02875 5.08069,0.251211 5.63179,0.492791 0.0416,0.01821 0.30945,-0.512535 0.59532,-1.179443 z m 1.4458,-3.535482 c -3.09362,-1.266196 -3.6129,-9.145387 -0.76737,-11.643787 1.24146,-1.090023 2.20973,-1.065884 3.35936,0.08375 2.38222,2.382216 2.34048,8.395164 -0.0751,10.810685 -0.99966,0.999665 -1.52397,1.155765 -2.51694,0.749352 z m 1.95972,-1.224939 c 2.06844,-1.740475 2.15898,-7.584499 0.15107,-9.751068 -0.84462,-0.911362 -1.76894,-0.873262 -2.5937,0.106912 -0.96859,1.151113 -1.361,2.530183 -1.35831,4.773635 0.003,2.320743 0.62218,4.224623 1.63312,5.019824 0.88085,0.692876 1.19246,0.671414 2.16782,-0.149303 z m -17.22642,-0.305171 c -1.57808,-0.978794 -2.80401,-4.689193 -2.45974,-7.444651 0.73527,-5.884908 4.71201,-7.615975 6.72836,-2.928842 1.53498,3.568153 0.53754,9.207457 -1.84661,10.440352 -0.96641,0.499749 -1.53373,0.484088 -2.42201,-0.06686 z m 2.28429,-0.745952 c 1.13261,-0.742116 1.84313,-2.862833 1.85731,-5.543604 0.0138,-2.616218 -0.3378,-3.955357 -1.35657,-5.166096 -0.77853,-0.925227 -2.12413,-1.075589 -2.81305,-0.314341 -1.01651,1.123236 -1.61259,3.04745 -1.61574,5.215854 -0.004,2.67651 0.45044,4.230397 1.56188,5.341831 0.97552,0.975518 1.4472,1.068485 2.36617,0.466356 z"
         style="fill:#000000;stroke-width:0.26458299"
         inkscape:connector-curvature="0" />
    </g>
  </g>
</svg>
